<?xml version="1.0" encoding="UTF-8" standalone="no"?>
<!-- Created with Inkscape (http://www.inkscape.org/) -->

<svg
   xmlns:dc="http://purl.org/dc/elements/1.1/"
   xmlns:cc="http://creativecommons.org/ns#"
   xmlns:rdf="http://www.w3.org/1999/02/22-rdf-syntax-ns#"
   xmlns:svg="http://www.w3.org/2000/svg"
   xmlns="http://www.w3.org/2000/svg"
   xmlns:sodipodi="http://sodipodi.sourceforge.net/DTD/sodipodi-0.dtd"
   xmlns:inkscape="http://www.inkscape.org/namespaces/inkscape"
   width="210mm"
   height="297mm"
   id="svg1901"
   sodipodi:version="0.32"
   inkscape:version="0.48.4 r9939"
   sodipodi:docname="logo_new1_1.svg"
   version="1.1">
  <defs
     id="defs1903" />
  <sodipodi:namedview
     id="base"
     pagecolor="#ffffff"
     bordercolor="#666666"
     borderopacity="1.0"
     inkscape:pageopacity="0.0"
     inkscape:pageshadow="2"
     inkscape:zoom="1.418471"
     inkscape:cx="350"
     inkscape:cy="671.98802"
     inkscape:document-units="px"
     inkscape:current-layer="layer1"
     inkscape:window-width="1523"
     inkscape:window-height="957"
     inkscape:window-x="112"
     inkscape:window-y="17"
     showgrid="false"
     inkscape:window-maximized="0" />
  <metadata
     id="metadata1906">
    <rdf:RDF>
      <cc:Work
         rdf:about="">
        <dc:format>image/svg+xml</dc:format>
        <dc:type
           rdf:resource="http://purl.org/dc/dcmitype/StillImage" />
        <dc:title></dc:title>
      </cc:Work>
    </rdf:RDF>
  </metadata>
  <g
     inkscape:label="Taso 1"
     inkscape:groupmode="layer"
     id="layer1"
     style="opacity:1">
    <path
       inkscape:export-ydpi="172.39999"
       inkscape:export-xdpi="172.39999"
       inkscape:export-filename="/home/t2r/work/delektre/Scma/graphics/path3775.png"
       sodipodi:nodetypes="ccccccccccccc"
       inkscape:connector-curvature="0"
       id="path3834"
       d="m 459.12269,139.63428 -5.59761,241.5047 29.54979,1.91765 2.81936,-206.1511 38.16521,91.62027 45.44765,-89.87283 2.3626,204.15338 28.22605,-0.65706 -7.81615,-252.37726 -21.51685,-4.91378 -44.69589,74.48577 -38.05442,-79.72552 z"
       style="fill:#000000;fill-opacity:1;stroke:none" />
    <path
       style="fill:#000000;fill-opacity:1;stroke:none"
       d="m 283.79498,175.10135 c -21.11794,-25.90776 -47.55634,-46.70221 -72.01618,-47.54923 -24.45984,-0.84702 -67.96973,10.05872 -62.56287,78.48796 5.40686,68.42925 90.86673,17.19837 94.09097,76.21296 3.22425,59.01459 -23.16676,62.32234 -43.84966,65.52585 -20.6829,3.2035 -46.33541,-79.08126 -46.33541,-79.08126 l -30.01076,20.65404 c 0,0 53.73641,90.17978 75.34904,91.31729 21.61263,1.13751 76.12263,-39.96976 73.75067,-100.69093 -2.37196,-60.72116 -96.12408,-44.46595 -98.00699,-88.63229 -1.88292,-44.16634 16.85534,-35.28425 42.85229,-37.57501 25.99696,-2.29076 37.25801,45.59352 37.25801,45.59352 z"
       id="path2982-2"
       inkscape:connector-curvature="0"
       sodipodi:nodetypes="czzzzcczzzzcc"
       inkscape:export-filename="/home/t2r/work/delektre/Scma/graphics/path3775.png"
       inkscape:export-xdpi="172.39999"
       inkscape:export-ydpi="172.39999" />
    <path
       sodipodi:nodetypes="czzzccccczzzcc"
       inkscape:connector-curvature="0"
       id="path3775-8"
       d="m 214.05082,307.76394 c 0,0 95.29796,-8.91844 139.05734,-0.97355 43.75938,7.9449 79.67883,-45.07282 96.29867,-39.04763 16.61984,6.02519 50.07908,42.7174 81.00222,43.76937 30.92313,1.05197 109.59792,-74.64478 109.59792,-74.64478 l 17.90282,21.53258 4.0541,-60.69922 -57.901,-0.80182 17.11204,19.72149 c 0,0 -61.24991,61.45916 -91.58638,60.06547 -30.33647,-1.39369 -62.50984,-44.58184 -83.04362,-48.75603 -20.53378,-4.17419 -61.05374,54.26744 -93.25922,45.99751 -32.20548,-8.26994 -126.36204,-3.05487 -126.36204,-3.05487 z"
       style="fill:#000000;fill-opacity:1;stroke:#ffffff;stroke-width:8;stroke-miterlimit:4;stroke-opacity:1;stroke-dasharray:none"
       inkscape:export-xdpi="172.39999"
       inkscape:export-ydpi="172.39999" />
    <path
       sodipodi:nodetypes="czzzcczzzcc"
       inkscape:connector-curvature="0"
       id="path3775-2"
       d="m 438.74401,192.00629 c 0,0 -31.60665,-63.34161 -55.57188,-62.08935 -23.96523,1.25226 -95.46561,42.17875 -100.44585,88.45195 -4.98024,46.2732 6.84468,149.16632 48.56752,164.01677 41.72284,14.85045 92.19545,-31.70664 92.19545,-31.70664 l -6.02015,-51.92825 c 0,0 -26.95039,60.216 -65.52715,50.19908 -38.57676,-10.01692 -33.01459,-86.86145 -31.07651,-126.08448 1.93808,-39.22303 39.58854,-55.33101 59.24117,-57.732 19.65262,-2.40099 23.14405,59.9442 23.14405,59.9442 z"
       style="fill:#000000;fill-opacity:1;stroke:#ffffff;stroke-width:10;stroke-linecap:butt;stroke-linejoin:miter;stroke-miterlimit:4;stroke-opacity:1;stroke-dasharray:none"
       inkscape:export-xdpi="172.39999"
       inkscape:export-ydpi="172.39999" />
  </g>
</svg>
