<?xml version="1.0" encoding="UTF-8" standalone="no"?>
<!-- Created with Inkscape (http://www.inkscape.org/) -->

<svg
   xmlns:dc="http://purl.org/dc/elements/1.1/"
   xmlns:cc="http://creativecommons.org/ns#"
   xmlns:rdf="http://www.w3.org/1999/02/22-rdf-syntax-ns#"
   xmlns:svg="http://www.w3.org/2000/svg"
   xmlns="http://www.w3.org/2000/svg"
   xmlns:sodipodi="http://sodipodi.sourceforge.net/DTD/sodipodi-0.dtd"
   xmlns:inkscape="http://www.inkscape.org/namespaces/inkscape"
   width="210mm"
   height="297mm"
   id="svg1901"
   sodipodi:version="0.32"
   inkscape:version="0.48.4 r9939"
   sodipodi:docname="logo_new1_3 .svg"
   version="1.1"
   inkscape:export-filename="/home/t2r/work/delektre/Scma/graphics/logo_new1_3.png"
   inkscape:export-xdpi="172"
   inkscape:export-ydpi="172">
  <defs
     id="defs1903" />
  <sodipodi:namedview
     id="base"
     pagecolor="#ffffff"
     bordercolor="#666666"
     borderopacity="1.0"
     inkscape:pageopacity="0.0"
     inkscape:pageshadow="2"
     inkscape:zoom="2.53"
     inkscape:cx="366.71069"
     inkscape:cy="854.80345"
     inkscape:document-units="px"
     inkscape:current-layer="layer6"
     inkscape:window-width="1920"
     inkscape:window-height="1017"
     inkscape:window-x="-4"
     inkscape:window-y="-6"
     showgrid="true"
     inkscape:window-maximized="1">
    <inkscape:grid
       type="xygrid"
       id="grid2982" />
  </sodipodi:namedview>
  <metadata
     id="metadata1906">
    <rdf:RDF>
      <cc:Work
         rdf:about="">
        <dc:format>image/svg+xml</dc:format>
        <dc:type
           rdf:resource="http://purl.org/dc/dcmitype/StillImage" />
        <dc:title></dc:title>
      </cc:Work>
    </rdf:RDF>
  </metadata>
  <g
     inkscape:label="Taso 1"
     inkscape:groupmode="layer"
     id="layer1"
     style="display:none">
    <path
       style="fill:none;stroke:#000000;stroke-width:1px;stroke-linecap:butt;stroke-linejoin:miter;stroke-opacity:1"
       d="m 345,12.362183 c 0,284.999997 0,414.999997 0,414.999997"
       id="path3828"
       inkscape:connector-curvature="0"
       sodipodi:nodetypes="cc" />
    <path
       style="fill:none;stroke:#000000;stroke-width:1px;stroke-linecap:butt;stroke-linejoin:miter;stroke-opacity:1"
       d="m 195.82397,17.47454 c 0,285 0,415 0,415"
       id="path3828-9"
       inkscape:connector-curvature="0"
       sodipodi:nodetypes="cc" />
    <path
       style="fill:none;stroke:#000000;stroke-width:1px;stroke-linecap:butt;stroke-linejoin:miter;stroke-opacity:1"
       d="m 119.86891,11.875289 c 0,285.000001 0,415.000001 0,415.000001"
       id="path3828-0"
       inkscape:connector-curvature="0"
       sodipodi:nodetypes="cc" />
    <path
       style="fill:none;stroke:#000000;stroke-width:1px;stroke-linecap:butt;stroke-linejoin:miter;stroke-opacity:1"
       d="m 570.16854,12.455813 c 0,285.000007 0,414.999997 0,414.999997"
       id="path3828-6"
       inkscape:connector-curvature="0"
       sodipodi:nodetypes="cc" />
    <path
       style="fill:none;stroke:#000000;stroke-width:1px;stroke-linecap:butt;stroke-linejoin:miter;stroke-opacity:1"
       d="m 420.37453,12.025104 c 0,284.999996 0,414.999996 0,414.999996"
       id="path3828-3"
       inkscape:connector-curvature="0"
       sodipodi:nodetypes="cc" />
    <path
       style="fill:none;stroke:#000000;stroke-width:1px;stroke-linecap:butt;stroke-linejoin:miter;stroke-opacity:1"
       d="m 270.86142,12.605629 c 0,285.000001 0,415.000001 0,415.000001"
       id="path3828-66"
       inkscape:connector-curvature="0"
       sodipodi:nodetypes="cc" />
  </g>
  <g
     inkscape:groupmode="layer"
     id="layer7"
     inkscape:label="Yläpuoli"
     style="display:inline"
     sodipodi:insensitive="true">
    <rect
       style="fill:#000000;fill-opacity:1;stroke:none;display:inline"
       id="rect2984-2"
       width="500"
       height="260"
       x="95"
       y="72.362183"
       ry="0" />
  </g>
  <g
     inkscape:groupmode="layer"
     id="layer6"
     inkscape:label="Alapuoli"
     style="display:inline">
    <path
       style="fill:#000000;fill-opacity:1;stroke:none"
       d="m 95,292.36218 c 0,5 0,5 0,5 l 500,35 0,-45 z"
       id="path4188"
       inkscape:connector-curvature="0" />
    <path
       style="fill:#000000;fill-opacity:1;stroke:none;display:inline"
       d="m 95,327.36218 c 186.74625,-31.46851 500,-50 500,-50 l 0,55 -500,0 z"
       id="path4186-4"
       inkscape:connector-curvature="0"
       sodipodi:nodetypes="ccccc" />
    <path
       style="fill:#ffffff;fill-opacity:1;stroke:none;display:inline"
       d="m 535,102.36218 35,0 -5,200 -35,0 z"
       id="path4217"
       inkscape:connector-curvature="0" />
    <path
       style="fill:#ff0000;fill-opacity:1;stroke:none"
       d="m 95,317.36218 c 500,-100 500,-100 500,-100 l 65,-5 -65,-35 -500,135 z"
       id="path4184"
       inkscape:connector-curvature="0"
       sodipodi:nodetypes="cccccc" />
    <path
       style="fill:#00ff00;fill-opacity:1;stroke:none;display:inline"
       d="m 95,317.36218 500,-115 65,10 -65,35 -500,75 z"
       id="path3957"
       inkscape:connector-curvature="0"
       sodipodi:nodetypes="cccccc" />
    <path
       style="fill:#0000ff;fill-opacity:1;stroke:none"
       d="m 95,322.36218 c 500,-95 500,-90 500,-90 l 65,-20 -65,55 -500,60 z"
       id="path4186"
       inkscape:connector-curvature="0"
       sodipodi:nodetypes="cccccc" />
  </g>
  <g
     inkscape:groupmode="layer"
     id="layer2"
     inkscape:label="Kirjaimet-1"
     style="display:none">
    <rect
       style="fill:#ff0000;fill-opacity:1;stroke:none"
       id="rect3779"
       width="99.606743"
       height="5"
       x="95.374535"
       y="22.362183" />
    <rect
       style="fill:#ff0000;fill-opacity:1;stroke:none"
       id="rect3779-5"
       width="99.606743"
       height="5"
       x="295.41202"
       y="22.624355" />
    <rect
       style="fill:#ff0000;fill-opacity:1;stroke:none"
       id="rect3779-2"
       width="99.606743"
       height="5"
       x="495.48691"
       y="22.774168" />
    <rect
       style="fill:#ff0000;fill-opacity:1;stroke:none"
       id="rect3824"
       width="150"
       height="5"
       x="120.09364"
       y="12.736714" />
    <rect
       style="fill:#ff0000;fill-opacity:1;stroke:none"
       id="rect3826"
       width="150"
       height="5"
       x="420.65543"
       y="12.736714" />
    <rect
       style="fill:#ff0000;fill-opacity:1;stroke:none"
       id="rect3824-4"
       width="150"
       height="5"
       x="270.20599"
       y="2.6243234" />
  </g>
  <g
     inkscape:groupmode="layer"
     id="layer5"
     inkscape:label="M"
     style="display:inline">
    <path
       style="fill:#ffffff;fill-opacity:1;stroke:none;display:inline"
       d="m 425,302.36218 5,-200 35,0 35,40 35,-40 0,50 -40,40 -30,-40 -5,150 z"
       id="path3777"
       inkscape:connector-curvature="0"
       sodipodi:nodetypes="cccccccccc" />
  </g>
  <g
     inkscape:groupmode="layer"
     id="layer4"
     inkscape:label="C"
     style="display:inline"
     sodipodi:insensitive="true">
    <path
       style="fill:#ffffff;fill-opacity:1;stroke:none;display:inline"
       d="m 375,172.36218 35,0 c 0,0 -5,-74.999997 -55,-74.999997 -50,0 -75,39.999997 -75,104.999997 0,65 30,100 60,100 60,-1e-5 70,-70 70,-70 l -40,0 c 0,0 -5,30 -25,30 -20,0 -25,-39.64466 -25,-75 0,-30 15,-50 30,-50 15,0 25,35 25,35 z"
       id="path3775"
       inkscape:connector-curvature="0"
       sodipodi:nodetypes="ccszsccsszc" />
  </g>
  <g
     inkscape:groupmode="layer"
     id="layer3"
     inkscape:label="S"
     style="display:inline">
    <path
       style="fill:#ffffff;fill-opacity:1;stroke:none;display:inline"
       d="m 230,162.36218 c 10,0 20,0 35,0 0,-15 -10,-60 -55,-60 -45,0 -70,20 -70,50 0,45 20,55 40,60 19.40285,4.85071 40,10 40,30 0,15 -5,25 -30,25 -25,0 -30,-35 -30,-35 l -40,0 c 0,0 -10,70 60,70 70,0 80,-55 80,-70 0,-30 -45,-50 -60,-50 -10,1e-5 -20,-10 -20,-25 0,-10 10,-19.99999 20,-20 10,0 30,10 30,25 z"
       id="path3775-6"
       inkscape:connector-curvature="0"
       sodipodi:nodetypes="cczcscsccscsczc" />
  </g>
</svg>
