<?xml version="1.0" encoding="UTF-8" standalone="no"?>
<!-- Created with Inkscape (http://www.inkscape.org/) -->

<svg
   xmlns:dc="http://purl.org/dc/elements/1.1/"
   xmlns:cc="http://creativecommons.org/ns#"
   xmlns:rdf="http://www.w3.org/1999/02/22-rdf-syntax-ns#"
   xmlns:svg="http://www.w3.org/2000/svg"
   xmlns="http://www.w3.org/2000/svg"
   xmlns:sodipodi="http://sodipodi.sourceforge.net/DTD/sodipodi-0.dtd"
   xmlns:inkscape="http://www.inkscape.org/namespaces/inkscape"
   width="210mm"
   height="297mm"
   id="svg1901"
   sodipodi:version="0.32"
   inkscape:version="0.48.4 r9939"
   sodipodi:docname="logo_new1_2.svg"
   version="1.1">
  <defs
     id="defs1903" />
  <sodipodi:namedview
     id="base"
     pagecolor="#ffffff"
     bordercolor="#666666"
     borderopacity="1.0"
     inkscape:pageopacity="0.0"
     inkscape:pageshadow="2"
     inkscape:zoom="1.7469907"
     inkscape:cx="350"
     inkscape:cy="802.37918"
     inkscape:document-units="px"
     inkscape:current-layer="layer1"
     inkscape:window-width="1523"
     inkscape:window-height="957"
     inkscape:window-x="348"
     inkscape:window-y="0"
     showgrid="true"
     inkscape:window-maximized="0"
     inkscape:snap-global="true">
    <inkscape:grid
       type="xygrid"
       id="grid3775" />
  </sodipodi:namedview>
  <metadata
     id="metadata1906">
    <rdf:RDF>
      <cc:Work
         rdf:about="">
        <dc:format>image/svg+xml</dc:format>
        <dc:type
           rdf:resource="http://purl.org/dc/dcmitype/StillImage" />
        <dc:title></dc:title>
      </cc:Work>
    </rdf:RDF>
  </metadata>
  <g
     inkscape:label="Taso 1"
     inkscape:groupmode="layer"
     id="layer1"
     style="opacity:1">
    <rect
       style="fill:#ffff00;fill-opacity:1;stroke:none"
       id="rect3005-3"
       width="525"
       height="175"
       x="105"
       y="262.36218" />
    <rect
       style="fill:#ff0000;fill-opacity:1;stroke:none"
       id="rect3005"
       width="525"
       height="170"
       x="105"
       y="92.362183" />
    <path
       inkscape:export-ydpi="172.39999"
       inkscape:export-xdpi="172.39999"
       inkscape:export-filename="/home/t2r/work/delektre/Scma/graphics/path3775.png"
       sodipodi:nodetypes="ccccccccccccc"
       inkscape:connector-curvature="0"
       id="path3834"
       d="m 459.12269,139.63428 -5.59761,241.5047 29.54979,1.91765 2.81936,-206.1511 38.16521,91.62027 45.44765,-89.87283 2.3626,204.15338 28.22605,-0.65706 -7.81615,-252.37726 -21.51685,-4.91378 -44.69589,74.48577 -38.05442,-79.72552 z"
       style="fill:#000000;fill-opacity:1;stroke:none" />
    <path
       style="fill:#000000;fill-opacity:1;stroke:none"
       d="m 283.79498,175.10135 c -21.11794,-25.90776 -47.55634,-46.70221 -72.01618,-47.54923 -24.45984,-0.84702 -67.96973,10.05872 -62.56287,78.48796 5.40686,68.42925 77.55983,32.30751 80.78407,91.3221 3.22425,59.01459 -14.3171,46.79649 -35,50 -20.6829,3.2035 -45,-75 -45,-75 l -35,20 c 0,0 35,90 75,90 40,0 82.37196,-24.27883 80,-85 -2.37196,-60.72116 -85,-90 -85,-105 0,-15 -0.99695,-17.70924 25,-20 25.99696,-2.29076 44.31409,27.00207 44.31409,27.00207 z"
       id="path2982-2"
       inkscape:connector-curvature="0"
       sodipodi:nodetypes="czzzzcczzzzcc"
       inkscape:export-filename="/home/t2r/work/delektre/Scma/graphics/path3775.png"
       inkscape:export-xdpi="172.39999"
       inkscape:export-ydpi="172.39999" />
    <path
       sodipodi:nodetypes="czzzccccczzzcc"
       inkscape:connector-curvature="0"
       id="path3775-8"
       d="m 165.96814,280.28812 c 0,0 95.29796,-8.91844 139.05734,-0.97355 43.75938,7.9449 79.67883,-45.07282 96.29867,-39.04763 16.61984,6.02519 50.07908,42.7174 81.00222,43.76937 30.92313,1.05197 109.59792,-74.64478 109.59792,-74.64478 l 17.90282,21.53258 4.0541,-60.69922 -57.901,-0.80182 17.11204,19.72149 c 0,0 -61.24991,61.45916 -91.58638,60.06547 -30.33647,-1.39369 -62.50984,-44.58184 -83.04362,-48.75603 -20.53378,-4.17419 -61.05374,54.26744 -93.25922,45.99751 -32.20548,-8.26994 -126.36204,-3.05487 -126.36204,-3.05487 z"
       style="fill:#0000ff;fill-opacity:1;stroke:none"
       inkscape:export-xdpi="172.39999"
       inkscape:export-ydpi="172.39999" />
    <path
       sodipodi:nodetypes="czzzcczzzcc"
       inkscape:connector-curvature="0"
       id="path3775-2"
       d="m 441.60607,170.2546 c 0,0 -18.86848,-42.42744 -76.60607,-42.89242 -57.73759,-0.46498 -85,50 -85,105 0,55 60,155 80,155 20,0 35,-25 60,-25 0,-20 0,-25 0,-45 -15,0 -27.81779,28.98475 -55,30 -27.18221,1.01526 -40,-70 -40,-110 0,-40 20,-60 40,-60 20,0 53.13339,35.69472 53.13339,35.69472 z"
       style="fill:#00ff00;fill-opacity:1;stroke:none"
       inkscape:export-xdpi="172.39999"
       inkscape:export-ydpi="172.39999" />
  </g>
</svg>
